<?xml version="1.0" encoding="UTF-8" standalone="no"?>
<!-- Created with Inkscape (http://www.inkscape.org/) -->

<svg
   xmlns:dc="http://purl.org/dc/elements/1.1/"
   xmlns:cc="http://creativecommons.org/ns#"
   xmlns:rdf="http://www.w3.org/1999/02/22-rdf-syntax-ns#"
   xmlns:svg="http://www.w3.org/2000/svg"
   xmlns="http://www.w3.org/2000/svg"
   xmlns:sodipodi="http://sodipodi.sourceforge.net/DTD/sodipodi-0.dtd"
   xmlns:inkscape="http://www.inkscape.org/namespaces/inkscape"
   width="198.967mm"
   height="106.362mm"
   viewBox="0 0 198.967 106.362"
   version="1.1"
   id="svg8"
   inkscape:version="0.92.4 (5da689c313, 2019-01-14)"
   sodipodi:docname="L7_Hypergeometric_PDF.svg">
  <defs
     id="defs2" />
  <sodipodi:namedview
     id="base"
     pagecolor="#ffffff"
     bordercolor="#666666"
     borderopacity="1.0"
     inkscape:pageopacity="0.0"
     inkscape:pageshadow="2"
     inkscape:zoom="0.98994949"
     inkscape:cx="351.28178"
     inkscape:cy="347.92327"
     inkscape:document-units="mm"
     inkscape:current-layer="g1030"
     showgrid="false"
     inkscape:window-width="1920"
     inkscape:window-height="1017"
     inkscape:window-x="-8"
     inkscape:window-y="-8"
     inkscape:window-maximized="1" />
  <metadata
     id="metadata5">
    <rdf:RDF>
      <cc:Work
         rdf:about="">
        <dc:format>image/svg+xml</dc:format>
        <dc:type
           rdf:resource="http://purl.org/dc/dcmitype/StillImage" />
        <dc:title></dc:title>
      </cc:Work>
    </rdf:RDF>
  </metadata>
  <g
     inkscape:label="Layer 1"
     inkscape:groupmode="layer"
     id="layer1"
     transform="translate(0,-190.638)">
    <g
       id="g1030"
       transform="matrix(0.26458333,0,0,0.26458333,-0.18899095,34.684524)">
      <g
         id="yMinorGrid"
         style="stroke:#c8dcff;stroke-width:0.5" />
      <g
         id="yMajorGrid"
         style="stroke:#c8dcff;stroke-width:1" />
      <g
         id="xMinorGrid"
         style="stroke:#c8dcff;stroke-width:0.5" />
      <g
         id="xMajorGrid"
         style="stroke:#c8dcff;stroke-width:1" />
      <g
         id="xMinorTicks"
         style="stroke:#000000;stroke-width:1" />
      <g
         clip-path="url(#plot_window)"
         id="plotPoints" />
      <g
         id="g1100"
         transform="translate(1.7149222,590.42952)">
        <g
           style="fill:#ffffff;stroke:#778899;stroke-width:2"
           id="imageBackground">
          <rect
             x="0"
             y="0"
             width="750"
             height="400"
             id="rect818" />
        </g>
        <g
           style="fill:#ffffff;stroke:#778899;stroke-width:2"
           id="plotBackground">
          <rect
             x="92.599998"
             y="58"
             width="412.29999"
             height="283"
             id="rect821" />
        </g>
        <g
           style="stroke:#000000;stroke-width:1"
           id="yAxis">
          <line
             x1="96.639999"
             y1="58"
             x2="96.639999"
             y2="346"
             id="line828" />
          <line
             x1="92.599998"
             y1="58"
             x2="92.599998"
             y2="341"
             id="line830" />
        </g>
        <g
           style="stroke:#000000;stroke-width:1"
           id="xAxis">
          <line
             x1="87.599998"
             y1="341"
             x2="504.89999"
             y2="341"
             id="line833" />
          <line
             x1="87.599998"
             y1="341"
             x2="504.89999"
             y2="341"
             id="line835" />
        </g>
        <g
           style="stroke:#000000;stroke-width:1"
           id="yMinorTicks">
          <path
             style="fill:none"
             inkscape:connector-curvature="0"
             d="m 90.6,327.8 h 2 m -2,-13.2 h 2 m -2,-13.2 h 2 m -2,-13.2 h 2 m -2,-26.4 h 2 m -2,-13.2 h 2 m -2,-13.2 h 2 m -2,-13.2 h 2 m -2,-26.4 h 2 m -2,-13.2 h 2 m -2,-13.2 h 2 m -2,-13.2 h 2 m -2,-26.4 h 2 m -2,-13.2 h 2 m -2,-13.2 h 2 m -2,-13.22 h 2 m -2,-26.4 h 2 M 90.6,341 h 2"
             id="path838" />
        </g>
        <g
           style="stroke:#000000;stroke-width:2"
           id="yMajorTicks">
          <path
             style="fill:none"
             inkscape:connector-curvature="0"
             d="m 87.6,341 h 5 m -5,-66 h 5 m -5,-66 h 5 m -5,-66 h 5 m -5,-66.02 h 5 M 87.6,341 h 5"
             id="path842" />
        </g>
        <g
           style="stroke:#000000;stroke-width:2"
           id="xMajorTicks">
          <path
             style="fill:none"
             inkscape:connector-curvature="0"
             d="m 96.64,341 v 5 m 80.86,-5 v 5 m 80.8,-5 v 5 m 80.9,-5 v 5 m 80.8,-5 v 5 m 80.8,-5 v 5 M 96.64,341 v 5"
             id="path845" />
        </g>
        <g
           id="xTicksValues">
          <text
             style="font-size:12px;font-family:Verdana;text-anchor:middle"
             x="96.639999"
             y="361.60001"
             font-size="12"
             id="text848">0</text>
          <text
             style="font-size:12px;font-family:Verdana;text-anchor:middle"
             x="177.5"
             y="361.60001"
             font-size="12"
             id="text850">10</text>
          <text
             style="font-size:12px;font-family:Verdana;text-anchor:middle"
             x="258.29999"
             y="361.60001"
             font-size="12"
             id="text852">20</text>
          <text
             style="font-size:12px;font-family:Verdana;text-anchor:middle"
             x="339.20001"
             y="361.60001"
             font-size="12"
             id="text854">30</text>
          <text
             style="font-size:12px;font-family:Verdana;text-anchor:middle"
             x="420"
             y="361.60001"
             font-size="12"
             id="text856">40</text>
          <text
             style="font-size:12px;font-family:Verdana;text-anchor:middle"
             x="500.79999"
             y="361.60001"
             font-size="12"
             id="text858">50</text>
          <text
             style="font-size:12px;font-family:Verdana;text-anchor:middle"
             x="96.639999"
             y="361.60001"
             font-size="12"
             id="text860">0</text>
        </g>
        <g
           id="yTicksValues">
          <text
             style="font-size:12px;font-family:Verdana;text-anchor:end"
             x="81.599998"
             y="343.39999"
             font-size="12"
             id="text863">0</text>
          <text
             style="font-size:12px;font-family:Verdana;text-anchor:end"
             x="81.599998"
             y="277.39999"
             font-size="12"
             id="text865">0.05</text>
          <text
             style="font-size:12px;font-family:Verdana;text-anchor:end"
             x="81.599998"
             y="211.39999"
             font-size="12"
             id="text867">0.1</text>
          <text
             style="font-size:12px;font-family:Verdana;text-anchor:end"
             x="81.599998"
             y="145.39999"
             font-size="12"
             id="text869">0.15</text>
          <text
             style="font-size:12px;font-family:Verdana;text-anchor:end"
             x="81.599998"
             y="79.379997"
             font-size="12"
             id="text871">0.2</text>
          <text
             style="font-size:12px;font-family:Verdana;text-anchor:end"
             x="81.599998"
             y="343.39999"
             font-size="12"
             id="text873">0</text>
        </g>
        <g
           transform="translate(0,-0.00683441)"
           id="yLabel">
          <text
             style="font-size:14px;font-family:Verdana;text-anchor:middle"
             x="42.900002"
             y="199.5"
             transform="rotate(-90,42.9,199.5)"
             font-size="14"
             id="text876">ალბათობა</text>
        </g>
        <g
           transform="translate(0.20720673)"
           id="xLabel">
          <text
             style="font-size:14px;font-family:Verdana;text-anchor:middle"
             x="298.70001"
             y="376.70001"
             font-size="14"
             id="text879">შემთხვევითი სიდიდე</text>
        </g>
        <g
           style="stroke-width:2"
           id="plotLines">
          <g
             style="fill:#00008b;stroke:#00008b;stroke-width:1"
             clip-path="url(#plot_window)"
             id="g884">
            <path
               style="fill:#00008b"
               inkscape:connector-curvature="0"
               d="m 93.61,341 v 0 -5.1 h 1.21 v 5.1 h 6.88 v -31.6 h 1.2 V 341 h 6.9 V 246.5 H 111 V 341 h 6.9 V 160.9 h 1.2 V 341 h 6.8 V 94.79 h 1.3 V 341 H 134 V 83.73 h 1.2 V 341 h 6.9 V 127.1 h 1.2 V 341 h 6.9 V 195.7 h 1.2 V 341 h 6.9 v -82.3 h 1.2 V 341 h 6.9 v -39.5 h 1.2 V 341 h 6.8 v -16.2 h 1.3 V 341 h 6.8 v -5.7 h 1.2 v 5.7 h 6.9 v -1.8 h 1.2 v 1.8 h 6.9 v -0.5 h 1.2 v 0.5 h 6.9 v -0.1 h 1.2 v 0.1 h 6.9 v 0 h 1.2 v 0 h 6.9 v 0 h 1.2 v 0 h 6.8 v 0 h 1.2 v 0 h 6.9 v 0 h 1.2 v 0 h 6.9 v 0 h 1.2 v 0 h 6.9 v 0 h 1.2 v 0 h 6.9 v 0 h 1.2 v 0 h 6.9 v 0 h 1.2 v 0 h 6.8 v 0 h 1.3 v 0 h 6.8 v 0 h 1.2 v 0 h 6.9 v 0 h 1.2 v 0 h 6.9 v 0 h 1.2 v 0 h 6.9 v 0 h 1.2 v 0 h 6.9 v 0 h 1.2 v 0 h 6.8 v 0 h 1.3 v 0 h 6.8 v 0 h 1.2 v 0 h 6.9 v 0 h 1.2 v 0 h 6.9 v 0 h 1.2 v 0 h 6.9 v 0 h 1.2 v 0 h 6.9 v 0 h 1.2 v 0 h 6.8 v 0 h 1.3 v 0 h 6.8 v 0 h 1.2 v 0 h 6.9 v 0 h 1.2 v 0 h 6.9 v 0 h 1.2 v 0 h 6.9 v 0 h 1.2 v 0 h 6.9 v 0 h 1.2 v 0 h 6.9 v 0 h 1.2 v 0 h 6.8 v 0 h 1.2 v 0 h 6.9 v 0 h 1.2 v 0 h 6.9 v 0 h 1.2 v 0 h 6.9 v 0 h 1.2 v 0 h 6.9 v 0 h 1.2 v 0 h 6.9 v 0 h 1.2 v 0 h 6.8 v 0 h 1.3 v 0 h 6.8 v 0 h 1.2 v 0 h 6.9 v 0 h 1.2 v 0 0 z"
               id="path882" />
          </g>
          <g
             style="fill:#8b0000;stroke:#8b0000;stroke-width:1"
             clip-path="url(#plot_window)"
             id="g888">
            <path
               style="fill:#8b0000"
               inkscape:connector-curvature="0"
               d="m 94.82,341 v 0 0 h 1.22 v 0 h 6.86 v -0.1 h 1.2 v 0.1 h 6.9 v -1 h 1.2 v 1 h 6.9 v -4.2 h 1.2 v 4.2 h 6.9 v -13.6 h 1.2 V 341 h 6.8 v -33.9 h 1.3 V 341 h 6.8 v -67.9 h 1.2 V 341 h 6.9 V 228.6 h 1.2 V 341 h 6.9 V 184 h 1.2 v 157 h 6.9 V 153.3 h 1.2 V 341 h 6.9 V 146.5 h 1.2 V 341 h 6.8 V 164.6 H 185 V 341 h 6.8 V 200.1 H 193 V 341 h 6.9 v -99.9 h 1.2 V 341 h 6.9 v -63.1 h 1.2 V 341 h 6.9 v -35.7 h 1.2 V 341 h 6.9 v -18.1 h 1.2 V 341 h 6.8 v -8.3 h 1.3 v 8.3 h 6.8 v -3.4 h 1.2 v 3.4 h 6.9 v -1.3 h 1.2 v 1.3 h 6.9 v -0.4 h 1.2 v 0.4 h 6.9 v -0.1 h 1.2 v 0.1 h 6.9 v 0 h 1.2 v 0 h 6.9 v 0 h 1.2 v 0 h 6.8 v 0 h 1.2 v 0 h 6.9 v 0 h 1.2 v 0 h 6.9 v 0 h 1.2 v 0 h 6.9 v 0 h 1.2 v 0 h 6.9 v 0 h 1.2 v 0 h 6.9 v 0 h 1.2 v 0 h 6.8 v 0 h 1.3 v 0 h 6.8 v 0 h 1.2 v 0 h 6.9 v 0 h 1.2 v 0 h 6.9 v 0 h 1.2 v 0 h 6.9 v 0 h 1.2 v 0 h 6.9 v 0 h 1.2 v 0 h 6.8 v 0 h 1.3 v 0 h 6.8 v 0 h 1.2 v 0 h 6.9 v 0 h 1.2 v 0 h 6.9 v 0 h 1.2 v 0 h 6.9 v 0 h 1.2 v 0 h 6.9 v 0 h 1.2 v 0 h 6.8 v 0 h 1.3 v 0 h 6.8 v 0 h 1.2 v 0 h 6.9 v 0 h 1.2 v 0 h 6.9 v 0 h 1.2 v 0 h 6.9 v 0 h 1.2 v 0 h 6.9 v 0 h 1.2 v 0 h 6.9 v 0 h 1.2 v 0 h 6.8 v 0 h 1.2 v 0 h 6.9 v 0 h 1.2 v 0 0 z"
               id="path886" />
          </g>
          <g
             style="fill:#006400;stroke:#006400;stroke-width:1"
             clip-path="url(#plot_window)"
             id="g892">
            <path
               style="fill:#006400"
               inkscape:connector-curvature="0"
               d="m 96.04,341 v 0 0 h 1.21 v 0 h 6.85 v 0 h 1.2 v 0 h 6.9 v 0 h 1.2 v 0 h 6.9 v 0 h 1.2 v 0 h 6.9 v 0 h 1.2 v 0 h 6.9 v 0 h 1.2 v 0 h 6.8 v 0 h 1.3 v 0 h 6.8 v 0 h 1.2 v 0 h 6.9 v 0 h 1.2 v 0 h 6.9 v 0 h 1.2 v 0 h 6.9 v 0 h 1.2 v 0 h 6.9 v 0 h 1.2 v 0 h 6.8 v -0.1 h 1.3 v 0.1 h 6.8 v -0.2 h 1.2 v 0.2 h 6.9 v -0.7 h 1.2 v 0.7 h 6.9 v -1.8 h 1.2 v 1.8 h 6.9 v -4.2 h 1.2 v 4.2 h 6.9 v -9.2 h 1.2 v 9.2 h 6.8 v -18 h 1.3 v 18 h 6.8 v -32 h 1.2 v 32 h 6.9 v -52.1 h 1.2 V 341 h 6.9 V 263.5 H 267 V 341 h 6.9 V 235.6 h 1.2 V 341 H 282 V 209.8 h 1.2 V 341 H 290 V 191.5 h 1.3 V 341 h 6.8 V 184.8 h 1.2 V 341 h 6.9 V 191.5 h 1.2 V 341 h 6.9 V 209.8 h 1.2 V 341 h 6.9 V 235.6 h 1.2 V 341 h 6.9 v -77.5 h 1.2 V 341 h 6.9 v -52.1 h 1.2 V 341 h 6.8 v -32 h 1.2 v 32 h 6.9 v -18 h 1.2 v 18 h 6.9 v -9.2 h 1.2 v 9.2 h 6.9 v -4.2 h 1.2 v 4.2 h 6.9 v -1.8 h 1.2 v 1.8 h 6.9 v -0.7 h 1.2 v 0.7 h 6.8 v -0.2 h 1.3 v 0.2 h 6.8 v -0.1 h 1.2 v 0.1 h 6.9 v 0 h 1.2 v 0 h 6.9 v 0 h 1.2 v 0 h 6.9 v 0 h 1.2 v 0 h 6.9 v 0 h 1.2 v 0 h 6.8 v 0 h 1.3 v 0 h 6.8 v 0 h 1.2 v 0 h 6.9 v 0 h 1.2 v 0 h 6.9 v 0 h 1.2 v 0 h 6.9 v 0 h 1.2 v 0 h 6.9 v 0 h 1.2 v 0 h 6.8 v 0 h 1.3 v 0 h 6.8 v 0 h 1.2 v 0 0 z"
               id="path890" />
          </g>
          <g
             style="fill:#ff8c00;stroke:#ff8c00;stroke-width:1"
             clip-path="url(#plot_window)"
             id="g896">
            <path
               style="fill:#ff8c00"
               inkscape:connector-curvature="0"
               d="m 97.25,341 v 0 0 h 1.21 v 0 h 6.84 v 0 h 1.2 v 0 h 6.9 v 0 h 1.2 v 0 h 6.9 v 0 h 1.2 v 0 h 6.9 v 0 h 1.2 v 0 h 6.9 v 0 h 1.2 v 0 h 6.9 v 0 h 1.2 v 0 h 6.8 v 0 h 1.2 v 0 h 6.9 v 0 h 1.2 v 0 h 6.9 v 0 h 1.2 v 0 h 6.9 v 0 h 1.2 v 0 h 6.9 v 0 h 1.2 v 0 h 6.9 v 0 h 1.2 v 0 h 6.8 v 0 h 1.3 v 0 h 6.8 v 0 h 1.2 v 0 h 6.9 v 0 h 1.2 v 0 h 6.9 v 0 h 1.2 v 0 h 6.9 v 0 h 1.2 v 0 h 6.9 v 0 h 1.2 v 0 h 6.8 v 0 h 1.3 v 0 h 6.8 v 0 h 1.2 v 0 h 6.9 v 0 h 1.2 v 0 h 6.9 v 0 h 1.2 v 0 h 6.9 v 0 h 1.2 v 0 h 6.9 v 0 h 1.2 v 0 h 6.8 v 0 h 1.3 v 0 h 6.8 v 0 h 1.2 v 0 h 6.9 v 0 h 1.2 v 0 h 6.9 v 0 h 1.2 v 0 h 6.9 v -0.1 h 1.2 v 0.1 h 6.9 v -0.4 h 1.2 v 0.4 h 6.8 v -1.3 h 1.3 v 1.3 h 6.8 v -3.4 h 1.2 v 3.4 h 6.9 v -8.3 h 1.2 v 8.3 h 6.9 v -18.1 h 1.2 V 341 h 6.9 v -35.7 h 1.2 V 341 h 6.9 v -63.1 h 1.2 V 341 h 6.9 v -99.9 h 1.2 V 341 h 6.8 V 200.1 h 1.2 V 341 h 6.9 V 164.6 h 1.2 V 341 h 6.9 V 146.5 h 1.2 V 341 h 6.9 V 153.3 h 1.2 V 341 h 6.9 V 184 h 1.2 v 157 h 6.9 V 228.6 h 1.2 V 341 h 6.8 v -67.9 h 1.3 V 341 h 6.8 v -33.9 h 1.2 V 341 h 6.9 v -13.6 h 1.2 V 341 h 6.9 v -4.2 h 1.2 v 4.2 h 6.9 v -1 h 1.2 v 1 h 6.9 v -0.1 h 1.2 v 0.1 h 6.8 v 0 h 1.3 v 0 0 z"
               id="path894" />
          </g>
          <g
             style="fill:#7fff00;stroke:#7fff00;stroke-width:1"
             clip-path="url(#plot_window)"
             id="g900">
            <path
               style="fill:#7fff00"
               inkscape:connector-curvature="0"
               d="m 98.46,341 v 0 0 h 1.21 v 0 h 6.83 v 0 h 1.3 v 0 h 6.8 v 0 h 1.2 v 0 h 6.9 v 0 h 1.2 v 0 h 6.9 v 0 h 1.2 v 0 h 6.9 v 0 h 1.2 v 0 h 6.9 v 0 h 1.2 v 0 h 6.8 v 0 h 1.3 v 0 h 6.8 v 0 h 1.2 v 0 h 6.9 v 0 h 1.2 v 0 h 6.9 v 0 h 1.2 v 0 h 6.9 v 0 h 1.2 v 0 h 6.9 v 0 h 1.2 v 0 h 6.9 v 0 h 1.2 v 0 h 6.8 v 0 h 1.2 v 0 h 6.9 v 0 h 1.2 v 0 h 6.9 v 0 h 1.2 v 0 h 6.9 v 0 h 1.2 v 0 h 6.9 v 0 h 1.2 v 0 h 6.9 v 0 h 1.2 v 0 h 6.8 v 0 h 1.3 v 0 h 6.8 v 0 h 1.2 v 0 h 6.9 v 0 h 1.2 v 0 h 6.9 v 0 h 1.2 v 0 h 6.9 v 0 h 1.2 v 0 h 6.9 v 0 h 1.2 v 0 h 6.8 v 0 h 1.3 v 0 h 6.8 v 0 h 1.2 v 0 h 6.9 v 0 h 1.2 v 0 h 6.9 v 0 h 1.2 v 0 h 6.9 v 0 h 1.2 v 0 h 6.9 v 0 h 1.2 v 0 h 6.8 v 0 h 1.3 v 0 h 6.8 v 0 h 1.2 v 0 h 6.9 v 0 h 1.2 v 0 h 6.9 v 0 h 1.2 v 0 h 6.9 v -0.1 h 1.2 v 0.1 h 6.9 v -0.5 h 1.2 v 0.5 h 6.8 v -1.8 h 1.3 v 1.8 h 6.8 v -5.7 h 1.2 v 5.7 h 6.9 V 324.8 H 423 V 341 h 6.9 v -39.5 h 1.2 V 341 h 6.9 v -82.3 h 1.2 V 341 h 6.9 V 195.7 h 1.2 V 341 h 6.9 V 127.1 h 1.2 V 341 h 6.8 V 83.73 h 1.2 V 341 h 6.9 V 94.79 h 1.2 V 341 h 6.9 V 160.9 h 1.2 V 341 h 6.9 v -94.5 h 1.2 V 341 h 6.9 v -31.6 h 1.2 V 341 h 6.9 v -5.1 h 1.2 v 5.1 0 z"
               id="path898" />
          </g>
        </g>
        <g
           style="fill:#ffffff;stroke:#778899;stroke-width:1"
           id="legendBackground">
          <rect
             x="518.90002"
             y="58"
             width="205.10001"
             height="165"
             id="rect904" />
          <rect
             x="518.90002"
             y="58"
             width="205.10001"
             height="165"
             id="rect906" />
        </g>
        <g
           id="legendPoints">
          <g
             style="fill:#ffffff;stroke:#00008b;stroke-width:1"
             id="g911">
            <line
               x1="533.90002"
               y1="88"
               x2="548.90002"
               y2="88"
               id="line909" />
          </g>
          <g
             style="fill:#ffffff;stroke:#8b0000;stroke-width:1"
             id="g915">
            <line
               x1="533.90002"
               y1="118"
               x2="548.90002"
               y2="118"
               id="line913" />
          </g>
          <g
             style="fill:#ffffff;stroke:#006400;stroke-width:1"
             id="g919">
            <line
               x1="533.90002"
               y1="148"
               x2="548.90002"
               y2="148"
               id="line917" />
          </g>
          <g
             style="fill:#ffffff;stroke:#ff8c00;stroke-width:1"
             id="g923">
            <line
               x1="533.90002"
               y1="178"
               x2="548.90002"
               y2="178"
               id="line921" />
          </g>
          <g
             style="fill:#ffffff;stroke:#7fff00;stroke-width:1"
             id="g927">
            <line
               x1="533.90002"
               y1="208"
               x2="548.90002"
               y2="208"
               id="line925" />
          </g>
        </g>
        <g
           id="legendText">
          <text
             style="font-size:15px;font-family:Verdana"
             x="556.40002"
             y="88"
             font-size="15"
             id="text930">N=500, r=50, n=50</text>
          <text
             style="font-size:15px;font-family:Verdana"
             x="556.40002"
             y="118"
             font-size="15"
             id="text932">N=500, r=50, n=100</text>
          <text
             style="font-size:15px;font-family:Verdana"
             x="556.40002"
             y="148"
             font-size="15"
             id="text934">N=500, r=50, n=250</text>
          <text
             style="font-size:15px;font-family:Verdana"
             x="556.40002"
             y="178"
             font-size="15"
             id="text936">N=500, r=50, n=400</text>
          <text
             style="font-size:15px;font-family:Verdana"
             x="556.40002"
             y="208"
             font-size="15"
             id="text938">N=500, r=50, n=450</text>
        </g>
        <g
           id="title">
          <text
             style="font-size:20px;font-family:Verdana;text-anchor:middle"
             x="375.05859"
             y="40"
             font-size="20"
             id="text941">ჰიპერგეომეტრიული განაწილება</text>
        </g>
      </g>
      <g
         id="plotXValues" />
      <g
         id="plotYValues" />
    </g>
  </g>
</svg>
