<?xml version="1.0" encoding="UTF-8" standalone="no"?>
<!-- Created with Inkscape (http://www.inkscape.org/) -->

<svg
   xmlns:dc="http://purl.org/dc/elements/1.1/"
   xmlns:cc="http://creativecommons.org/ns#"
   xmlns:rdf="http://www.w3.org/1999/02/22-rdf-syntax-ns#"
   xmlns:svg="http://www.w3.org/2000/svg"
   xmlns="http://www.w3.org/2000/svg"
   xmlns:sodipodi="http://sodipodi.sourceforge.net/DTD/sodipodi-0.dtd"
   xmlns:inkscape="http://www.inkscape.org/namespaces/inkscape"
   width="198.702mm"
   height="212.724mm"
   viewBox="0 0 198.702 212.724"
   version="1.1"
   id="svg5673"
   sodipodi:docname="L8_Normal.svg"
   inkscape:version="0.92.4 (5da689c313, 2019-01-14)">
  <defs
     id="defs5667" />
  <sodipodi:namedview
     id="base"
     pagecolor="#ffffff"
     bordercolor="#666666"
     borderopacity="1.0"
     inkscape:pageopacity="0.0"
     inkscape:pageshadow="2"
     inkscape:zoom="1.4"
     inkscape:cx="338.54731"
     inkscape:cy="512.81761"
     inkscape:document-units="mm"
     inkscape:current-layer="g6568"
     showgrid="false"
     inkscape:window-width="1920"
     inkscape:window-height="1017"
     inkscape:window-x="-8"
     inkscape:window-y="-8"
     inkscape:window-maximized="1" />
  <metadata
     id="metadata5670">
    <rdf:RDF>
      <cc:Work
         rdf:about="">
        <dc:format>image/svg+xml</dc:format>
        <dc:type
           rdf:resource="http://purl.org/dc/dcmitype/StillImage" />
        <dc:title />
      </cc:Work>
    </rdf:RDF>
  </metadata>
  <g
     inkscape:label="Layer 1"
     inkscape:groupmode="layer"
     id="layer1"
     transform="translate(0,-84.276)">
    <g
       id="g6568"
       transform="matrix(0.26458333,0,0,0.26458333,0.26449835,190.90233)">
      <g
         style="stroke:#c8dcff;stroke-width:0.5"
         id="yMinorGrid" />
      <g
         style="stroke:#c8dcff;stroke-width:1"
         id="yMajorGrid" />
      <g
         style="stroke:#c8dcff;stroke-width:0.5"
         id="xMinorGrid" />
      <g
         style="stroke:#c8dcff;stroke-width:1"
         id="xMajorGrid" />
      <g
         clip-path="url(#plot_window)"
         id="plotPoints" />
      <g
         id="plotXValues" />
      <g
         id="plotYValues" />
      <rect
         style="fill:#ffffff;stroke:#778899;stroke-width:2"
         x="-0.4998394"
         y="-0.99904436"
         width="750"
         height="400"
         id="rect3187" />
      <rect
         style="fill:#ffffff;stroke:#778899;stroke-width:2"
         x="83.700157"
         y="57.000957"
         width="452"
         height="283"
         id="rect3190" />
      <line
         style="stroke:#000000;stroke-width:1"
         x1="309.70016"
         y1="57.000957"
         x2="309.70016"
         y2="345.00095"
         id="line3197" />
      <line
         style="stroke:#000000;stroke-width:1"
         x1="83.700157"
         y1="57.000957"
         x2="83.700157"
         y2="340.00095"
         id="line3199" />
      <line
         style="stroke:#000000;stroke-width:1"
         x1="78.700157"
         y1="340.00095"
         x2="535.7002"
         y2="340.00095"
         id="line3202" />
      <line
         style="stroke:#000000;stroke-width:1"
         x1="78.700157"
         y1="340.00095"
         x2="535.7002"
         y2="340.00095"
         id="line3204" />
      <path
         d="m 81.700161,334.90096 h 2 m -2,-5.2 h 2 m -2,-5.1 h 2 m -2,-5.2 h 2 m -2,-10.3 h 2 m -2,-5.1 h 2 m -2,-5.2 h 2 m -2,-5.1 h 2 m -2,-10.3 h 2 m -2,-5.1 h 2 m -2,-5.2 h 2 m -2,-5.1 h 2 m -2,-10.3 h 2 m -2,-5.2 h 2 m -2,-5.1 h 2 m -2,-5.2 h 2 m -2,-10.3 h 2 m -2,-5.1 h 2 m -2,-5.1 h 2 m -2,-5.2 h 2 m -2,-10.3 h 2 m -2,-5.1 h 2 m -2,-5.2 h 2 m -2,-5.1 h 2 m -2,-10.3 h 2 m -2,-5.2 h 2 m -2,-5.1 h 2 m -2,-5.1 h 2 m -2,-10.3 h 2 m -2,-5.2 h 2 m -2,-5.1 h 2 m -2,-5.2 h 2 m -2,-10.3 h 2 m -2,-5.1 h 2 m -2,-5.2 h 2 m -2,-5.1 h 2 m -2,-10.3 h 2 m -2,-5.140004 h 2 m -2,-5.14 h 2 m -2,-5.15 h 2 m -2,-10.29 h 2 m -2,-5.14 h 2 m -2,-5.15 h 2 m -2,-5.14 h 2 m -2,277.850004 h 2"
         id="path3207"
         inkscape:connector-curvature="0"
         style="fill:none;stroke:#000000;stroke-width:1" />
      <path
         d="m 319.00016,340.00096 v 2 m 9.2,-2 v 2 m 9.2,-2 v 2 m 9.3,-2 v 2 m 18.4,-2 v 2 m 9.3,-2 v 2 m 9.2,-2 v 2 m 9.2,-2 v 2 m 18.5,-2 v 2 m 9.2,-2 v 2 m 9.3,-2 v 2 m 9.2,-2 v 2 m 18.5,-2 v 2 m 9.2,-2 v 2 m 9.2,-2 v 2 m 9.3,-2 v 2 m 18.4,-2 v 2 m 9.3,-2 v 2 m 9.2,-2 v 2 m 9.2,-2 v 2 m -230.8,-2 v 2 m -9.2,-2 v 2 m -9.3,-2 v 2 m -9.2,-2 v 2 m -18.5,-2 v 2 m -9.2,-2 v 2 m -9.2,-2 v 2 m -9.3,-2 v 2 m -18.4,-2 v 2 m -9.3,-2 v 2 m -9.2,-2 v 2 m -9.2,-2 v 2 m -18.5,-2 v 2 m -9.3,-2 v 2 m -9.2,-2 v 2 m -9.2,-2 v 2 m -18.5,-2 v 2 m -9.2,-2 v 2 m -9.249999,-2 v 2 m -9.24,-2 v 2"
         id="path3210"
         inkscape:connector-curvature="0"
         style="fill:none;stroke:#000000;stroke-width:1" />
      <path
         d="m 78.700161,340.00096 h 5 m -5,-25.7 h 5 m -5,-25.8 h 5 m -5,-25.7 h 5 m -5,-25.7 h 5 m -5,-25.7 h 5 m -5,-25.8 h 5 m -5,-25.7 h 5 m -5,-25.7 h 5 m -5,-25.7 h 5 m -5,-25.770004 h 5 m -5,-25.73 h 5 m -5,283.000004 h 5"
         id="path3213"
         inkscape:connector-curvature="0"
         style="fill:none;stroke:#000000;stroke-width:2" />
      <path
         d="m 309.70016,340.00096 v 5 m 46.2,-5 v 5 m 46.2,-5 v 5 m 46.1,-5 v 5 m 46.2,-5 v 5 m -184.7,-5 v 5 m -46.1,-5 v 5 m -46.2,-5 v 5 m -46.2,-5 v 5 m -46.2,-5 v 5"
         id="path3216"
         inkscape:connector-curvature="0"
         style="fill:none;stroke:#000000;stroke-width:2" />
      <text
         x="309.70016"
         y="360.60095"
         font-size="12"
         id="text3219"
         style="font-size:12px;font-family:Verdana;text-anchor:middle">0</text>
      <text
         x="355.90015"
         y="360.60095"
         font-size="12"
         id="text3221"
         style="font-size:12px;font-family:Verdana;text-anchor:middle">1</text>
      <text
         x="402.10016"
         y="360.60095"
         font-size="12"
         id="text3223"
         style="font-size:12px;font-family:Verdana;text-anchor:middle">2</text>
      <text
         x="448.20016"
         y="360.60095"
         font-size="12"
         id="text3225"
         style="font-size:12px;font-family:Verdana;text-anchor:middle">3</text>
      <text
         x="494.40015"
         y="360.60095"
         font-size="12"
         id="text3227"
         style="font-size:12px;font-family:Verdana;text-anchor:middle">4</text>
      <text
         x="309.70016"
         y="360.60095"
         font-size="12"
         id="text3229"
         style="font-size:12px;font-family:Verdana;text-anchor:middle">0</text>
      <text
         x="263.60016"
         y="360.60095"
         font-size="12"
         id="text3231"
         style="font-size:12px;font-family:Verdana;text-anchor:middle">-1</text>
      <text
         x="217.40016"
         y="360.60095"
         font-size="12"
         id="text3233"
         style="font-size:12px;font-family:Verdana;text-anchor:middle">-2</text>
      <text
         x="171.20016"
         y="360.60095"
         font-size="12"
         id="text3235"
         style="font-size:12px;font-family:Verdana;text-anchor:middle">-3</text>
      <text
         x="125.00016"
         y="360.60095"
         font-size="12"
         id="text3237"
         style="font-size:12px;font-family:Verdana;text-anchor:middle">-4</text>
      <text
         x="72.700157"
         y="342.40094"
         font-size="12"
         id="text3240"
         style="font-size:12px;font-family:Verdana;text-anchor:end">0</text>
      <text
         x="72.700157"
         y="316.70096"
         font-size="12"
         id="text3242"
         style="font-size:12px;font-family:Verdana;text-anchor:end">0.1</text>
      <text
         x="72.700157"
         y="290.90094"
         font-size="12"
         id="text3244"
         style="font-size:12px;font-family:Verdana;text-anchor:end">0.2</text>
      <text
         x="72.700157"
         y="265.20096"
         font-size="12"
         id="text3246"
         style="font-size:12px;font-family:Verdana;text-anchor:end">0.3</text>
      <text
         x="72.700157"
         y="239.50096"
         font-size="12"
         id="text3248"
         style="font-size:12px;font-family:Verdana;text-anchor:end">0.4</text>
      <text
         x="72.700157"
         y="213.80096"
         font-size="12"
         id="text3250"
         style="font-size:12px;font-family:Verdana;text-anchor:end">0.5</text>
      <text
         x="72.700157"
         y="188.00096"
         font-size="12"
         id="text3252"
         style="font-size:12px;font-family:Verdana;text-anchor:end">0.6</text>
      <text
         x="72.700157"
         y="162.30096"
         font-size="12"
         id="text3254"
         style="font-size:12px;font-family:Verdana;text-anchor:end">0.7</text>
      <text
         x="72.700157"
         y="136.60097"
         font-size="12"
         id="text3256"
         style="font-size:12px;font-family:Verdana;text-anchor:end">0.8</text>
      <text
         x="72.700157"
         y="110.90096"
         font-size="12"
         id="text3258"
         style="font-size:12px;font-family:Verdana;text-anchor:end">0.9</text>
      <text
         x="72.700157"
         y="85.130951"
         font-size="12"
         id="text3260"
         style="font-size:12px;font-family:Verdana;text-anchor:end">1</text>
      <text
         x="72.700157"
         y="59.400959"
         font-size="12"
         id="text3262"
         style="font-size:12px;font-family:Verdana;text-anchor:end">1.1</text>
      <text
         x="72.700157"
         y="342.40094"
         font-size="12"
         id="text3264"
         style="font-size:12px;font-family:Verdana;text-anchor:end">0</text>
      <text
         x="-198.50096"
         y="42.400158"
         transform="rotate(-90)"
         font-size="14"
         id="text3267"
         style="font-size:14px;font-family:Verdana;text-anchor:middle">ალბათობა</text>
      <text
         x="309.70016"
         y="375.70096"
         font-size="14"
         id="text3270"
         style="font-size:14px;font-family:Verdana;text-anchor:middle">შემთხვევითი სიდიდე</text>
      <path
         style="fill:none;stroke:#00008b;stroke-width:1"
         inkscape:connector-curvature="0"
         id="path3273"
         d="m 83.700161,340.00096 h 2.26 2.26 2.26 2.26 2.26 2.26 2.24 2.299999 2.2 2.3 2.3 2.2 2.3 2.2 2.3 2.3 2.2 2.3 2.2 2.3 2.3 2.2 2.3 2.2 2.3 2.3 2.2 l 2.3,-0.1 h 2.2 2.3 2.3 2.2 2.3 l 2.2,-0.1 h 2.3 2.3 l 2.2,-0.1 h 2.3 l 2.2,-0.1 h 2.3 l 2.3,-0.1 2.2,-0.1 2.3,-0.1 2.2,-0.1 2.3,-0.1 2.3,-0.2 2.2,-0.1 2.3,-0.2 2.2,-0.2 2.3,-0.2 2.3,-0.3 2.2,-0.3 2.3,-0.4 2.3,-0.3 2.2,-0.4 2.3,-0.5 2.2,-0.5 2.3,-0.6 2.3,-0.7 2.2,-0.7 2.3,-0.7 2.2,-0.9 2.3,-0.9 2.3,-1 2.2,-1.1 2.3,-1.2 2.2,-1.4 2.3,-1.4 2.3,-1.5 2.2,-1.7 2.3,-1.7 2.2,-1.9 2.3,-2.1 2.3,-2.1 2.2,-2.3 2.3,-2.5 2.2,-2.6 2.3,-2.7 2.3,-2.9 2.2,-3 2.3,-3.2 2.2,-3.3 2.3,-3.5 2.3,-3.7 2.2,-3.7 2.3,-3.9 2.2,-4.1 2.3,-4.1 2.3,-4.3 2.2,-4.4 2.3,-4.5 2.2,-4.6 2.3,-4.7 2.3,-4.8 2.2,-4.9 2.3,-4.9 2.2,-4.9 2.3,-5 2.3,-5 2.2,-5 2.3,-5.1 2.2,-5 2.3,-5 2.3,-4.9 2.2,-4.9 2.3,-4.9 2.2,-4.7 2.3,-4.7 2.3,-4.6 2.2,-4.5 2.3,-4.4 2.2,-4.3 2.3,-4.2 2.3,-4 2.2,-3.9 2.3,-3.8 2.2,-3.6 2.3,-3.5 2.3,-3.4 2.2,-3.1 2.3,-3.1 2.2,-2.9 2.3,-2.7 2.3,-2.6 2.2,-2.4 2.3,-2.3 2.2,-2.2 2.3,-2 2.3,-1.9 2.2,-1.8 2.3,-1.700004 2.2,-1.49 2.3,-1.42 2.3,-1.31 2.2,-1.21 2.3,-1.11 2.2,-1.02 2.3,-0.93 2.3,-0.85 2.2,-0.77 2.3,-0.71 2.2,-0.64 2.3,-0.57 2.3,-0.52 2.2,-0.47 2.3,-0.42 2.2,-0.38 2.3,-0.34 2.3,-0.3 2.2,-0.26 2.3,-0.24 2.3,-0.21 2.2,-0.18 2.3,-0.17 2.2,-0.14 2.3,-0.13 2.3,-0.11 2.2,-0.09 2.3,-0.08 2.2,-0.08 2.3,-0.06 2.3,-0.05 2.2,-0.05 2.3,-0.04 2.2,-0.03 2.3,-0.03 2.3,-0.03 2.2,-0.02 2.3,-0.02 2.2,-0.01 2.3,-0.02 2.3,-0.01 2.2,-0.01 2.3,-0.01 h 2.2 l 2.3,-0.01 h 2.3 l 2.2,-0.01 h 2.3 2.2 2.3 l 2.3,-0.01 h 2.2 2.3 2.2 2.3 2.3 2.2 2.3 2.2 2.3 2.3 2.2 2.3 2.2 2.3 2.3 2.2 2.3 2.2" />
      <path
         style="fill:none;stroke:#8b0000;stroke-width:1"
         inkscape:connector-curvature="0"
         id="path3277"
         d="m 83.700161,340.00096 h 2.26 2.26 2.26 2.26 2.26 2.26 2.24 2.299999 2.2 2.3 2.3 2.2 2.3 2.2 2.3 2.3 2.2 2.3 2.2 2.3 2.3 2.2 2.3 2.2 2.3 2.3 2.2 2.3 2.2 2.3 2.3 2.2 2.3 2.2 2.3 2.3 2.2 2.3 2.2 2.3 2.3 2.2 2.3 2.2 2.3 2.3 2.2 2.3 2.2 2.3 2.3 2.2 2.3 2.3 2.2 2.3 2.2 2.3 2.3 2.2 2.3 2.2 2.3 l 2.3,-0.1 h 2.2 2.3 l 2.2,-0.1 h 2.3 l 2.3,-0.1 2.2,-0.1 2.3,-0.2 2.2,-0.2 2.3,-0.3 2.3,-0.3 2.2,-0.4 2.3,-0.6 2.2,-0.7 2.3,-0.9 2.3,-1.1 2.2,-1.4 2.3,-1.6 2.2,-1.9 2.3,-2.3 2.3,-2.8 2.2,-3.2 2.3,-3.6 2.2,-4.2 2.3,-4.8 2.3,-5.3 2.2,-5.9 2.3,-6.5 2.2,-7.1 2.3,-7.7 2.3,-8.2 2.2,-8.7 2.3,-9.1 2.2,-9.5 2.3,-9.8 2.3,-9.9 2.2,-10 2.3,-10.1 2.2,-9.9 2.3,-9.7 2.3,-9.5 2.2,-9.1 2.3,-8.7 2.2,-8.2 2.3,-7.7 2.3,-7.1 2.2,-6.5 2.3,-6 2.2,-5.3 2.3,-4.7 2.3,-4.2 2.2,-3.7 2.3,-3.190004 2.2,-2.73 2.3,-2.32 2.3,-1.95 2.2,-1.62 2.3,-1.35 2.2,-1.09 2.3,-0.89 2.3,-0.72 2.2,-0.56 2.3,-0.45 2.2,-0.35 2.3,-0.27 2.3,-0.2 2.2,-0.16 2.3,-0.11 2.2,-0.09 2.3,-0.06 2.3,-0.05 2.2,-0.03 2.3,-0.03 2.2,-0.02 2.3,-0.01 2.3,-0.01 h 2.2 l 2.3,-0.01 h 2.2 2.3 2.3 2.2 2.3 2.2 2.3 2.3 2.2 2.3 2.3 2.2 2.3 2.2 2.3 2.3 2.2 2.3 2.2 2.3 2.3 2.2 2.3 2.2 2.3 2.3 2.2 2.3 2.2 2.3 2.3 2.2 2.3 2.2 2.3 2.3 2.2 2.3 2.2 2.3 2.3 2.2 2.3 2.2 2.3 2.3 2.2 2.3 2.2 2.3 2.3 2.2 2.3 2.2 2.3 2.3 2.2 2.3 2.2" />
      <path
         style="fill:none;stroke:#006400;stroke-width:1"
         inkscape:connector-curvature="0"
         id="path3281"
         d="m 83.700161,338.20096 2.26,-0.2 2.26,-0.1 2.26,-0.2 2.26,-0.1 2.26,-0.2 2.26,-0.2 2.24,-0.1 2.299999,-0.2 2.2,-0.2 2.3,-0.2 2.3,-0.3 2.2,-0.2 2.3,-0.3 2.2,-0.2 2.3,-0.3 2.3,-0.3 2.2,-0.3 2.3,-0.4 2.2,-0.3 2.3,-0.4 2.3,-0.3 2.2,-0.4 2.3,-0.4 2.2,-0.5 2.3,-0.4 2.3,-0.5 2.2,-0.5 2.3,-0.5 2.2,-0.6 2.3,-0.5 2.3,-0.6 2.2,-0.7 2.3,-0.6 2.2,-0.7 2.3,-0.7 2.3,-0.7 2.2,-0.7 2.3,-0.8 2.2,-0.8 2.3,-0.9 2.3,-0.8 2.2,-0.9 2.3,-1 2.2,-0.9 2.3,-1 2.3,-1.1 2.2,-1 2.3,-1.1 2.2,-1.2 2.3,-1.1 2.3,-1.2 2.2,-1.3 2.3,-1.3 2.3,-1.3 2.2,-1.3 2.3,-1.4 2.2,-1.4 2.3,-1.5 2.3,-1.5 2.2,-1.5 2.3,-1.6 2.2,-1.6 2.3,-1.7 2.3,-1.6 2.2,-1.8 2.3,-1.7 2.2,-1.8 2.3,-1.9 2.3,-1.8 2.2,-1.9 2.3,-2 2.2,-1.9 2.3,-2 2.3,-2.1 2.2,-2 2.3,-2.1 2.2,-2.2 2.3,-2.1 2.3,-2.2 2.2,-2.2 2.3,-2.3 2.2,-2.2 2.3,-2.3 2.3,-2.3 2.2,-2.4 2.3,-2.3 2.2,-2.4 2.3,-2.4 2.3,-2.4 2.2,-2.5 2.3,-2.4 2.2,-2.5 2.3,-2.4 2.3,-2.5 2.2,-2.5 2.3,-2.5 2.2,-2.5 2.3,-2.5 2.3,-2.5 2.2,-2.5 2.3,-2.5 2.2,-2.6 2.3,-2.5 2.3,-2.5 2.2,-2.5 2.3,-2.5 2.2,-2.4 2.3,-2.5 2.3,-2.5 2.2,-2.4 2.3,-2.4 2.2,-2.5 2.3,-2.4 2.3,-2.3 2.2,-2.4 2.3,-2.3 2.2,-2.3 2.3,-2.3 2.3,-2.3 2.2,-2.2 2.3,-2.3 2.2,-2.1 2.3,-2.2 2.3,-2.1 2.2,-2.1 2.3,-2.1 2.2,-2 2.3,-2 2.3,-2 2.2,-1.9 2.3,-1.9 2.2,-1.9 2.3,-1.8 2.3,-1.8 2.2,-1.8 2.3,-1.7 2.2,-1.7 2.3,-1.7 2.3,-1.6 2.2,-1.5 2.3,-1.6 2.2,-1.5 2.3,-1.4 2.3,-1.5 2.2,-1.4 2.3,-1.3 2.2,-1.3 2.3,-1.3 2.3,-1.2 2.2,-1.2 2.3,-1.2 2.3,-1.1 2.2,-1.1 2.3,-1.1 2.2,-1 2.3,-1 2.3,-1 2.2,-0.9 2.3,-0.9 2.2,-0.9 2.3,-0.9 2.3,-0.800004 2.2,-0.74 2.3,-0.75 2.2,-0.73 2.3,-0.69 2.3,-0.67 2.2,-0.64 2.3,-0.62 2.2,-0.59 2.3,-0.56 2.3,-0.55 2.2,-0.52 2.3,-0.5 2.2,-0.47 2.3,-0.46 2.3,-0.43 2.2,-0.42 2.3,-0.4 2.2,-0.37 2.3,-0.36 2.3,-0.35 2.2,-0.33 2.3,-0.31 2.2,-0.29 2.3,-0.28 2.3,-0.27 2.2,-0.25 2.3,-0.24 2.2,-0.23 2.3,-0.22 2.3,-0.2 2.2,-0.2 2.3,-0.18 2.2,-0.17 2.3,-0.17 2.3,-0.15 2.2,-0.15 2.3,-0.13 2.2,-0.13" />
      <path
         style="fill:none;stroke:#ff8c00;stroke-width:1"
         inkscape:connector-curvature="0"
         id="path3285"
         d="m 83.700161,340.00096 h 2.26 2.26 2.26 2.26 2.26 2.26 2.24 l 2.299999,-0.1 h 2.2 2.3 2.3 2.2 2.3 l 2.2,-0.1 h 2.3 2.3 l 2.2,-0.1 h 2.3 l 2.2,-0.1 2.3,-0.1 h 2.3 l 2.2,-0.1 2.3,-0.1 2.2,-0.1 2.3,-0.2 2.3,-0.1 2.2,-0.2 2.3,-0.2 2.2,-0.2 2.3,-0.3 2.3,-0.2 2.2,-0.4 2.3,-0.3 2.2,-0.4 2.3,-0.4 2.3,-0.5 2.2,-0.6 2.3,-0.6 2.2,-0.6 2.3,-0.8 2.3,-0.8 2.2,-0.9 2.3,-0.9 2.2,-1.1 2.3,-1.1 2.3,-1.3 2.2,-1.4 2.3,-1.4 2.2,-1.6 2.3,-1.7 2.3,-1.8 2.2,-2 2.3,-2.1 2.3,-2.2 2.2,-2.4 2.3,-2.5 2.2,-2.6 2.3,-2.8 2.3,-3 2.2,-3.1 2.3,-3.2 2.2,-3.4 2.3,-3.6 2.3,-3.6 2.2,-3.9 2.3,-3.9 2.2,-4.1 2.3,-4.2 2.3,-4.4 2.2,-4.4 2.3,-4.6 2.2,-4.6 2.3,-4.8 2.3,-4.8 2.2,-4.8 2.3,-5 2.2,-4.9 2.3,-5 2.3,-5.1 2.2,-5 2.3,-5 2.2,-5 2.3,-5 2.3,-4.9 2.2,-4.9 2.3,-4.8 2.2,-4.7 2.3,-4.7 2.3,-4.6 2.2,-4.4 2.3,-4.4 2.2,-4.2 2.3,-4.1 2.3,-4 2.2,-3.9 2.3,-3.7 2.2,-3.5 2.3,-3.5 2.3,-3.2 2.2,-3.2 2.3,-2.9 2.2,-2.8 2.3,-2.7 2.3,-2.6 2.2,-2.3 2.3,-2.3 2.2,-2.1 2.3,-2 2.3,-1.8 2.2,-1.7 2.3,-1.630004 2.2,-1.48 2.3,-1.37 2.3,-1.27 2.2,-1.16 2.3,-1.07 2.2,-0.98 2.3,-0.9 2.3,-0.82 2.2,-0.74 2.3,-0.68 2.2,-0.61 2.3,-0.55 2.3,-0.5 2.2,-0.45 2.3,-0.4 2.2,-0.36 2.3,-0.32 2.3,-0.28 2.2,-0.26 2.3,-0.22 2.2,-0.2 2.3,-0.18 2.3,-0.15 2.2,-0.14 2.3,-0.11 2.2,-0.11 2.3,-0.09 2.3,-0.08 2.2,-0.06 2.3,-0.06 2.2,-0.05 2.3,-0.05 2.3,-0.04 2.2,-0.03 2.3,-0.03 2.2,-0.02 2.3,-0.02 2.3,-0.02 2.2,-0.01 2.3,-0.01 2.3,-0.01 2.2,-0.01 2.3,-0.01 h 2.2 l 2.3,-0.01 h 2.3 l 2.2,-0.01 h 2.3 2.2 2.3 l 2.3,-0.01 h 2.2 2.3 2.2 2.3 2.3 2.2 2.3 2.2 2.3 2.3 2.2 2.3 2.2 2.3 2.3 2.2 2.3 2.2 2.3 2.3 2.2 2.3 2.2 2.3 2.3 2.2 2.3 2.2 2.3 2.3 2.2 2.3 2.2 2.3 2.3 2.2 2.3 2.2" />
      <path
         style="fill:none;stroke:#7fff00;stroke-width:1"
         inkscape:connector-curvature="0"
         id="path3289"
         d="m 83.700161,340.00096 h 2.26 2.26 2.26 2.26 2.26 2.26 2.24 2.299999 2.2 2.3 2.3 2.2 2.3 2.2 2.3 2.3 2.2 2.3 2.2 2.3 2.3 2.2 2.3 2.2 2.3 2.3 2.2 2.3 2.2 2.3 2.3 2.2 2.3 2.2 2.3 2.3 2.2 2.3 2.2 2.3 2.3 2.2 2.3 2.2 2.3 2.3 2.2 l 2.3,-0.1 h 2.2 2.3 2.3 2.2 2.3 2.3 l 2.2,-0.1 h 2.3 2.2 l 2.3,-0.1 h 2.3 l 2.2,-0.1 2.3,-0.1 h 2.2 l 2.3,-0.1 2.3,-0.1 2.2,-0.2 2.3,-0.1 2.2,-0.1 2.3,-0.2 2.3,-0.2 2.2,-0.2 2.3,-0.3 2.2,-0.3 2.3,-0.3 2.3,-0.4 2.2,-0.4 2.3,-0.4 2.2,-0.5 2.3,-0.6 2.3,-0.6 2.2,-0.6 2.3,-0.8 2.2,-0.8 2.3,-0.9 2.3,-1 2.2,-1.1 2.3,-1.1 2.2,-1.3 2.3,-1.4 2.3,-1.4 2.2,-1.6 2.3,-1.8 2.2,-1.8 2.3,-2 2.3,-2.1 2.2,-2.2 2.3,-2.4 2.2,-2.5 2.3,-2.7 2.3,-2.8 2.2,-3 2.3,-3.1 2.2,-3.3 2.3,-3.4 2.3,-3.6 2.2,-3.7 2.3,-3.8 2.2,-4 2.3,-4.1 2.3,-4.3 2.2,-4.3 2.3,-4.5 2.2,-4.6 2.3,-4.6 2.3,-4.8 2.2,-4.8 2.3,-4.9 2.2,-4.9 2.3,-5 2.3,-5 2.2,-5 2.3,-5 2.2,-5 2.3,-5 2.3,-5 2.2,-4.9 2.3,-4.9 2.2,-4.8 2.3,-4.7 2.3,-4.7 2.2,-4.5 2.3,-4.5 2.2,-4.3 2.3,-4.2 2.3,-4.1 2.2,-4 2.3,-3.8 2.2,-3.7 2.3,-3.5 2.3,-3.4 2.2,-3.3 2.3,-3.1 2.2,-2.9 2.3,-2.8 2.3,-2.7 2.2,-2.5 2.3,-2.4 2.2,-2.2 2.3,-2.1 2.3,-1.9 2.2,-1.9 2.3,-1.7 2.3,-1.550004 2.2,-1.47 2.3,-1.35 2.2,-1.25 2.3,-1.16 2.3,-1.05 2.2,-0.97 2.3,-0.89 2.2,-0.8 2.3,-0.74 2.3,-0.66 2.2,-0.6 2.3,-0.55 2.2,-0.49 2.3,-0.44 2.3,-0.39 2.2,-0.36 2.3,-0.31 2.2,-0.28 2.3,-0.25 2.3,-0.22 2.2,-0.2 2.3,-0.17 2.2,-0.15 2.3,-0.13 2.3,-0.12 2.2,-0.1 2.3,-0.09 2.2,-0.08 2.3,-0.06 2.3,-0.06 2.2,-0.05 2.3,-0.04 2.2,-0.04 2.3,-0.03 2.3,-0.03 2.2,-0.02 2.3,-0.02 2.2,-0.02 2.3,-0.01 2.3,-0.01 2.2,-0.01 2.3,-0.01 2.2,-0.01 h 2.3 l 2.3,-0.01 h 2.2 l 2.3,-0.01 h 2.2" />
      <rect
         style="fill:#ffffff;stroke:#778899;stroke-width:1"
         x="549.7002"
         y="57.000957"
         width="173.8"
         height="165"
         id="rect3295" />
      <rect
         style="fill:#ffffff;stroke:#778899;stroke-width:1"
         x="549.7002"
         y="57.000957"
         width="173.8"
         height="165"
         id="rect3297" />
      <line
         style="fill:#ffffff;stroke:#00008b;stroke-width:1"
         id="line3300"
         y2="87.000954"
         x2="579.7002"
         y1="87.000954"
         x1="564.7002" />
      <line
         style="fill:#ffffff;stroke:#8b0000;stroke-width:1"
         id="line3304"
         y2="117.00095"
         x2="579.7002"
         y1="117.00095"
         x1="564.7002" />
      <line
         style="fill:#ffffff;stroke:#006400;stroke-width:1"
         id="line3308"
         y2="147.00096"
         x2="579.7002"
         y1="147.00096"
         x1="564.7002" />
      <line
         style="fill:#ffffff;stroke:#ff8c00;stroke-width:1"
         id="line3312"
         y2="177.00096"
         x2="579.7002"
         y1="177.00096"
         x1="564.7002" />
      <line
         style="fill:#ffffff;stroke:#7fff00;stroke-width:1"
         id="line3316"
         y2="207.00096"
         x2="579.7002"
         y1="207.00096"
         x1="564.7002" />
      <text
         x="587.2002"
         y="87.000954"
         font-size="15"
         id="text3321"
         style="font-size:15px;font-family:Verdana">μ = 0, σ = 1</text>
      <text
         x="587.2002"
         y="117.00095"
         font-size="15"
         id="text3323"
         style="font-size:15px;font-family:Verdana">μ = 0, σ = 0.5</text>
      <text
         x="587.2002"
         y="147.00096"
         font-size="15"
         id="text3325"
         style="font-size:15px;font-family:Verdana">μ = 0, σ = 2</text>
      <text
         x="587.2002"
         y="177.00096"
         font-size="15"
         id="text3327"
         style="font-size:15px;font-family:Verdana">μ = -1, σ = 1</text>
      <text
         x="587.2002"
         y="207.00096"
         font-size="15"
         id="text3329"
         style="font-size:15px;font-family:Verdana">μ = 1, σ = 1</text>
      <text
         x="374.50015"
         y="39.000957"
         font-size="20"
         id="text3332"
         style="font-size:20px;font-family:Verdana;text-anchor:middle">კომულაციური განაწილების ფუნქცია</text>
      <rect
         style="fill:#ffffff;stroke:#778899;stroke-width:2"
         x="-0.4998394"
         y="-400.99905"
         width="750"
         height="400"
         id="rect3503" />
      <rect
         style="fill:#ffffff;stroke:#778899;stroke-width:2"
         x="83.700157"
         y="-342.99905"
         width="452"
         height="283"
         id="rect3506" />
      <line
         style="stroke:#000000;stroke-width:1"
         x1="309.70016"
         y1="-342.99905"
         x2="309.70016"
         y2="-54.999039"
         id="line3513" />
      <line
         style="stroke:#000000;stroke-width:1"
         x1="83.700157"
         y1="-342.99905"
         x2="83.700157"
         y2="-59.999039"
         id="line3515" />
      <line
         style="stroke:#000000;stroke-width:1"
         x1="78.700157"
         y1="-59.999039"
         x2="535.7002"
         y2="-59.999039"
         id="line3518" />
      <line
         style="stroke:#000000;stroke-width:1"
         x1="78.700157"
         y1="-59.999039"
         x2="535.7002"
         y2="-59.999039"
         id="line3520" />
      <path
         style="fill:none;stroke:#000000;stroke-width:1"
         inkscape:connector-curvature="0"
         d="m 81.700161,-66.39904 h 2 m -2,-6.5 h 2 m -2,-6.4 h 2 m -2,-6.5 h 2 m -2,-12.9 h 2 m -2,-6.4 h 2 m -2,-6.5 h 2 m -2,-6.4 h 2 m -2,-12.9 h 2 m -2,-6.5 h 2 m -2,-6.4 h 2 m -2,-6.5 h 2 m -2,-12.9 h 2 m -2,-6.4 h 2 m -2,-6.5 h 2 m -2,-6.4 h 2 m -2,-12.9 h 2 m -2,-6.5 h 2 m -2,-6.4 h 2 m -2,-6.5 h 2 m -2,-12.9 h 2 m -2,-6.4 h 2 m -2,-6.5 h 2 m -2,-6.4 h 2 m -2,-12.9 h 2 m -2,-6.5 h 2 m -2,-6.4 h 2 m -2,-6.5 h 2 m -2,-12.9 h 2 m -2,-6.4 h 2 m -2,-6.46 h 2 m -2,-6.45 h 2 m -2,-12.89 h 2 m -2,-6.45 h 2 m -2,-6.45 h 2 m -2,277.3 h 2"
         id="path3523" />
      <path
         style="fill:none;stroke:#000000;stroke-width:1"
         inkscape:connector-curvature="0"
         d="m 319.00016,-59.99904 v 2 m 9.2,-2 v 2 m 9.2,-2 v 2 m 9.3,-2 v 2 m 18.4,-2 v 2 m 9.3,-2 v 2 m 9.2,-2 v 2 m 9.2,-2 v 2 m 18.5,-2 v 2 m 9.2,-2 v 2 m 9.3,-2 v 2 m 9.2,-2 v 2 m 18.5,-2 v 2 m 9.2,-2 v 2 m 9.2,-2 v 2 m 9.3,-2 v 2 m 18.4,-2 v 2 m 9.3,-2 v 2 m 9.2,-2 v 2 m 9.2,-2 v 2 m -230.8,-2 v 2 m -9.2,-2 v 2 m -9.3,-2 v 2 m -9.2,-2 v 2 m -18.5,-2 v 2 m -9.2,-2 v 2 m -9.2,-2 v 2 m -9.3,-2 v 2 m -18.4,-2 v 2 m -9.3,-2 v 2 m -9.2,-2 v 2 m -9.2,-2 v 2 m -18.5,-2 v 2 m -9.3,-2 v 2 m -9.2,-2 v 2 m -9.2,-2 v 2 m -18.5,-2 v 2 m -9.2,-2 v 2 m -9.249999,-2 v 2 m -9.24,-2 v 2"
         id="path3526" />
      <path
         style="fill:none;stroke:#000000;stroke-width:2"
         inkscape:connector-curvature="0"
         d="m 78.700161,-59.99904 h 5 m -5,-32.2 h 5 m -5,-32.3 h 5 m -5,-32.2 h 5 m -5,-32.3 h 5 m -5,-32.2 h 5 m -5,-32.3 h 5 m -5,-32.2 h 5 m -5,-32.25 h 5 m -5,257.95 h 5"
         id="path3529" />
      <path
         style="fill:none;stroke:#000000;stroke-width:2"
         inkscape:connector-curvature="0"
         d="m 309.70016,-59.99904 v 5 m 46.2,-5 v 5 m 46.2,-5 v 5 m 46.1,-5 v 5 m 46.2,-5 v 5 m -184.7,-5 v 5 m -46.1,-5 v 5 m -46.2,-5 v 5 m -46.2,-5 v 5 m -46.2,-5 v 5"
         id="path3532" />
      <text
         style="font-size:12px;font-family:Verdana;text-anchor:middle"
         x="309.70016"
         y="-39.399033"
         font-size="12"
         id="text3535">0</text>
      <text
         style="font-size:12px;font-family:Verdana;text-anchor:middle"
         x="355.90015"
         y="-39.399033"
         font-size="12"
         id="text3537">1</text>
      <text
         style="font-size:12px;font-family:Verdana;text-anchor:middle"
         x="402.10016"
         y="-39.399033"
         font-size="12"
         id="text3539">2</text>
      <text
         style="font-size:12px;font-family:Verdana;text-anchor:middle"
         x="448.20016"
         y="-39.399033"
         font-size="12"
         id="text3541">3</text>
      <text
         style="font-size:12px;font-family:Verdana;text-anchor:middle"
         x="494.40015"
         y="-39.399033"
         font-size="12"
         id="text3543">4</text>
      <text
         style="font-size:12px;font-family:Verdana;text-anchor:middle"
         x="309.70016"
         y="-39.399033"
         font-size="12"
         id="text3545">0</text>
      <text
         style="font-size:12px;font-family:Verdana;text-anchor:middle"
         x="263.60016"
         y="-39.399033"
         font-size="12"
         id="text3547">-1</text>
      <text
         style="font-size:12px;font-family:Verdana;text-anchor:middle"
         x="217.40016"
         y="-39.399033"
         font-size="12"
         id="text3549">-2</text>
      <text
         style="font-size:12px;font-family:Verdana;text-anchor:middle"
         x="171.20016"
         y="-39.399033"
         font-size="12"
         id="text3551">-3</text>
      <text
         style="font-size:12px;font-family:Verdana;text-anchor:middle"
         x="125.00016"
         y="-39.399033"
         font-size="12"
         id="text3553">-4</text>
      <text
         style="font-size:12px;font-family:Verdana;text-anchor:end"
         x="72.700157"
         y="-57.599045"
         font-size="12"
         id="text3556">0</text>
      <text
         style="font-size:12px;font-family:Verdana;text-anchor:end"
         x="72.700157"
         y="-89.799026"
         font-size="12"
         id="text3558">0.1</text>
      <text
         style="font-size:12px;font-family:Verdana;text-anchor:end"
         x="72.700157"
         y="-122.09904"
         font-size="12"
         id="text3560">0.2</text>
      <text
         style="font-size:12px;font-family:Verdana;text-anchor:end"
         x="72.700157"
         y="-154.29904"
         font-size="12"
         id="text3562">0.3</text>
      <text
         style="font-size:12px;font-family:Verdana;text-anchor:end"
         x="72.700157"
         y="-186.59904"
         font-size="12"
         id="text3564">0.4</text>
      <text
         style="font-size:12px;font-family:Verdana;text-anchor:end"
         x="72.700157"
         y="-218.79904"
         font-size="12"
         id="text3566">0.5</text>
      <text
         style="font-size:12px;font-family:Verdana;text-anchor:end"
         x="72.700157"
         y="-251.09904"
         font-size="12"
         id="text3568">0.6</text>
      <text
         style="font-size:12px;font-family:Verdana;text-anchor:end"
         x="72.700157"
         y="-283.29904"
         font-size="12"
         id="text3570">0.7</text>
      <text
         style="font-size:12px;font-family:Verdana;text-anchor:end"
         x="72.700157"
         y="-315.54904"
         font-size="12"
         id="text3572">0.8</text>
      <text
         style="font-size:12px;font-family:Verdana;text-anchor:end"
         x="72.700157"
         y="-57.599045"
         font-size="12"
         id="text3574">0</text>
      <text
         style="font-size:14px;font-family:Verdana;text-anchor:middle"
         x="201.49904"
         y="42.400162"
         transform="rotate(-90)"
         font-size="14"
         id="text3577">ალბათობა</text>
      <text
         style="font-size:14px;font-family:Verdana;text-anchor:middle"
         x="309.70016"
         y="-24.299028"
         font-size="14"
         id="text3580">შემთხვევითი სიდიდე</text>
      <g
         style="stroke:#00008b;stroke-width:1"
         clip-path="url(#plot_window-3)"
         id="g3585"
         transform="translate(-0.49983941,-400.99904)">
        <path
           style="fill:none"
           inkscape:connector-curvature="0"
           d="m 84.2,341 h 2.26 2.26 2.26 2.26 2.26 2.26 2.24 2.3 2.2 2.3 2.3 2.2 2.3 2.2 2.3 2.3 2.2 2.3 2.2 l 2.3,-0.1 h 2.3 2.2 2.3 2.2 l 2.3,-0.1 h 2.3 2.2 l 2.3,-0.1 h 2.2 l 2.3,-0.1 h 2.3 l 2.2,-0.1 2.3,-0.1 2.2,-0.1 2.3,-0.1 2.3,-0.1 2.2,-0.2 2.3,-0.2 2.2,-0.2 2.3,-0.2 2.3,-0.3 2.2,-0.3 2.3,-0.3 2.2,-0.4 2.3,-0.4 2.3,-0.5 2.2,-0.5 2.3,-0.6 2.2,-0.7 2.3,-0.7 2.3,-0.8 2.2,-0.9 2.3,-1 2.3,-1.1 2.2,-1.2 2.3,-1.2 2.2,-1.4 2.3,-1.5 2.3,-1.7 2.2,-1.7 2.3,-1.9 2.2,-2 2.3,-2.1 2.3,-2.3 2.2,-2.4 2.3,-2.6 2.2,-2.7 2.3,-2.8 2.3,-3 2.2,-3 2.3,-3.3 2.2,-3.3 2.3,-3.4 2.3,-3.5 2.2,-3.6 2.3,-3.7 2.2,-3.7 2.3,-3.8 2.3,-3.8 2.2,-3.8 2.3,-3.9 2.2,-3.7 2.3,-3.8 2.3,-3.6 2.2,-3.6 2.3,-3.5 2.2,-3.4 2.3,-3.1 2.3,-3.1 2.2,-2.8 2.3,-2.6 2.2,-2.4 2.3,-2.2 2.3,-1.9 2.2,-1.6 2.3,-1.4 2.2,-1.1 2.3,-0.7 2.3,-0.5 2.2,-0.1 2.3,0.1 2.2,0.5 2.3,0.7 2.3,1.1 2.2,1.4 2.3,1.6 2.2,1.9 2.3,2.2 2.3,2.4 2.2,2.6 2.3,2.8 2.2,3 2.3,3.2 2.3,3.4 2.2,3.5 2.3,3.5 2.2,3.7 2.3,3.7 2.3,3.8 2.2,3.8 2.3,3.9 2.2,3.8 2.3,3.8 2.3,3.7 2.2,3.7 2.3,3.6 2.2,3.5 2.3,3.4 2.3,3.3 2.2,3.2 2.3,3.1 2.2,3 2.3,2.8 2.3,2.7 2.2,2.6 2.3,2.4 2.2,2.3 2.3,2.1 2.3,2 2.2,1.9 2.3,1.7 2.2,1.7 2.3,1.5 2.3,1.4 2.2,1.2 2.3,1.2 2.2,1.1 2.3,1 2.3,0.9 2.2,0.8 2.3,0.7 2.3,0.7 2.2,0.6 2.3,0.5 2.2,0.5 2.3,0.4 2.3,0.4 2.2,0.3 2.3,0.3 2.2,0.3 2.3,0.2 2.3,0.2 2.2,0.2 2.3,0.1 2.2,0.2 2.3,0.1 2.3,0.1 2.2,0.1 2.3,0.1 h 2.2 l 2.3,0.1 h 2.3 l 2.2,0.1 h 2.3 2.2 l 2.3,0.1 h 2.3 2.2 2.3 2.2 l 2.3,0.1 h 2.3 2.2 2.3 2.2 2.3 2.3 2.2 2.3 2.2 2.3 2.3 2.2 2.3 2.2 2.3 2.3 2.2 2.3 2.2"
           id="path3583" />
      </g>
      <g
         style="stroke:#8b0000;stroke-width:1"
         clip-path="url(#plot_window-3)"
         id="g3589"
         transform="translate(-0.49983941,-400.99904)">
        <path
           style="fill:none"
           inkscape:connector-curvature="0"
           d="m 84.2,341 h 2.26 2.26 2.26 2.26 2.26 2.26 2.24 2.3 2.2 2.3 2.3 2.2 2.3 2.2 2.3 2.3 2.2 2.3 2.2 2.3 2.3 2.2 2.3 2.2 2.3 2.3 2.2 2.3 2.2 2.3 2.3 2.2 2.3 2.2 2.3 2.3 2.2 2.3 2.2 2.3 2.3 2.2 2.3 2.2 2.3 2.3 2.2 2.3 2.2 2.3 2.3 2.2 2.3 2.3 2.2 2.3 2.2 l 2.3,-0.1 h 2.3 2.2 l 2.3,-0.1 2.2,-0.1 2.3,-0.1 2.3,-0.1 2.2,-0.2 2.3,-0.3 2.2,-0.4 2.3,-0.5 2.3,-0.7 2.2,-0.8 2.3,-1.2 2.2,-1.4 2.3,-1.8 2.3,-2.3 2.2,-2.8 2.3,-3.4 2.2,-4.1 2.3,-4.9 2.3,-5.8 2.2,-6.7 2.3,-7.8 2.2,-8.8 2.3,-10 2.3,-11 2.2,-12.1 2.3,-13 2.2,-13.9 2.3,-14.6 2.3,-15 2.2,-15.3 2.3,-15.2 2.2,-14.8 2.3,-14.1 2.3,-13.1 2.2,-11.7 2.3,-10.1 2.2,-8.1 2.3,-5.98 2.3,-3.66 2.2,-1.23 2.3,1.22 2.2,3.66 2.3,5.97 2.3,8.12 2.2,10.1 2.3,11.7 2.2,13.1 2.3,14.1 2.3,14.8 2.2,15.2 2.3,15.2 2.2,15.1 2.3,14.5 2.3,13.9 2.2,13.1 2.3,12.1 2.2,11 2.3,9.9 2.3,8.9 2.2,7.8 2.3,6.7 2.2,5.8 2.3,4.9 2.3,4.1 2.2,3.4 2.3,2.8 2.2,2.3 2.3,1.8 2.3,1.4 2.2,1.2 2.3,0.8 2.2,0.7 2.3,0.5 2.3,0.4 2.2,0.3 2.3,0.2 2.2,0.1 2.3,0.1 2.3,0.1 2.2,0.1 h 2.3 2.2 l 2.3,0.1 h 2.3 2.2 2.3 2.2 2.3 2.3 2.2 2.3 2.3 2.2 2.3 2.2 2.3 2.3 2.2 2.3 2.2 2.3 2.3 2.2 2.3 2.2 2.3 2.3 2.2 2.3 2.2 2.3 2.3 2.2 2.3 2.2 2.3 2.3 2.2 2.3 2.2 2.3 2.3 2.2 2.3 2.2 2.3 2.3 2.2 2.3 2.2 2.3 2.3 2.2 2.3 2.2 2.3 2.3 2.2 2.3 2.2"
           id="path3587" />
      </g>
      <g
         style="stroke:#006400;stroke-width:1"
         clip-path="url(#plot_window-3)"
         id="g3593"
         transform="translate(-0.49983941,-400.99904)">
        <path
           style="fill:none"
           inkscape:connector-curvature="0"
           d="m 84.2,337.8 2.26,-0.2 2.26,-0.2 2.26,-0.2 2.26,-0.3 2.26,-0.2 2.26,-0.3 2.24,-0.2 2.3,-0.3 2.2,-0.3 2.3,-0.3 2.3,-0.3 2.2,-0.3 2.3,-0.4 2.2,-0.3 2.3,-0.4 2.3,-0.4 2.2,-0.4 2.3,-0.4 2.2,-0.4 2.3,-0.5 2.3,-0.4 2.2,-0.5 2.3,-0.5 2.2,-0.5 2.3,-0.5 2.3,-0.6 2.2,-0.5 2.3,-0.6 2.2,-0.6 2.3,-0.6 2.3,-0.6 2.2,-0.7 2.3,-0.7 2.2,-0.6 2.3,-0.7 2.3,-0.8 2.2,-0.7 2.3,-0.7 2.2,-0.8 2.3,-0.8 2.3,-0.8 2.2,-0.8 2.3,-0.8 2.2,-0.8 2.3,-0.9 2.3,-0.8 2.2,-0.9 2.3,-0.9 2.2,-0.9 2.3,-0.9 2.3,-0.9 2.2,-1 2.3,-0.9 2.3,-0.9 2.2,-1 2.3,-0.9 2.2,-1 2.3,-0.9 2.3,-1 2.2,-0.9 2.3,-1 2.2,-0.9 2.3,-1 2.3,-0.9 2.2,-1 2.3,-0.9 2.2,-0.9 2.3,-0.9 2.3,-0.9 2.2,-0.9 2.3,-0.9 2.2,-0.9 2.3,-0.8 2.3,-0.8 2.2,-0.8 2.3,-0.8 2.2,-0.8 2.3,-0.7 2.3,-0.8 2.2,-0.7 2.3,-0.6 2.2,-0.7 2.3,-0.6 2.3,-0.6 2.2,-0.5 2.3,-0.5 2.2,-0.5 2.3,-0.5 2.3,-0.4 2.2,-0.4 2.3,-0.4 2.2,-0.3 2.3,-0.3 2.3,-0.2 2.2,-0.2 2.3,-0.2 2.2,-0.1 2.3,-0.1 2.3,-0.1 h 2.2 2.3 l 2.2,0.1 2.3,0.1 2.3,0.1 2.2,0.2 2.3,0.2 2.2,0.2 2.3,0.3 2.3,0.3 2.2,0.4 2.3,0.4 2.2,0.4 2.3,0.5 2.3,0.4 2.2,0.6 2.3,0.5 2.2,0.6 2.3,0.6 2.3,0.7 2.2,0.6 2.3,0.7 2.2,0.8 2.3,0.7 2.3,0.8 2.2,0.8 2.3,0.8 2.2,0.8 2.3,0.8 2.3,0.9 2.2,0.9 2.3,0.9 2.2,0.9 2.3,0.9 2.3,0.9 2.2,0.9 2.3,1 2.2,0.9 2.3,1 2.3,0.9 2.2,1 2.3,0.9 2.2,1 2.3,0.9 2.3,1 2.2,0.9 2.3,1 2.2,0.9 2.3,0.9 2.3,1 2.2,0.9 2.3,0.9 2.3,0.9 2.2,0.9 2.3,0.8 2.2,0.9 2.3,0.9 2.3,0.8 2.2,0.8 2.3,0.8 2.2,0.8 2.3,0.8 2.3,0.8 2.2,0.7 2.3,0.7 2.2,0.8 2.3,0.7 2.3,0.6 2.2,0.7 2.3,0.7 2.2,0.6 2.3,0.6 2.3,0.6 2.2,0.6 2.3,0.5 2.2,0.6 2.3,0.5 2.3,0.5 2.2,0.5 2.3,0.5 2.2,0.4 2.3,0.5 2.3,0.4 2.2,0.4 2.3,0.4 2.2,0.4 2.3,0.4 2.3,0.3 2.2,0.4 2.3,0.3 2.2,0.3 2.3,0.3 2.3,0.3 2.2,0.3 2.3,0.2 2.2,0.3 2.3,0.2 2.3,0.3 2.2,0.2 2.3,0.2 2.2,0.2"
           id="path3591" />
      </g>
      <g
         style="stroke:#ff8c00;stroke-width:1"
         clip-path="url(#plot_window-3)"
         id="g3597"
         transform="translate(-0.49983941,-400.99904)">
        <path
           style="fill:none"
           inkscape:connector-curvature="0"
           d="m 84.2,340.9 h 2.26 2.26 2.26 2.26 l 2.26,-0.1 h 2.26 2.24 l 2.3,-0.1 h 2.2 l 2.3,-0.1 2.3,-0.1 h 2.2 l 2.3,-0.1 2.2,-0.1 2.3,-0.2 2.3,-0.1 2.2,-0.2 2.3,-0.2 2.2,-0.2 2.3,-0.2 2.3,-0.3 2.2,-0.3 2.3,-0.4 2.2,-0.4 2.3,-0.4 2.3,-0.5 2.2,-0.6 2.3,-0.6 2.2,-0.7 2.3,-0.8 2.3,-0.8 2.2,-0.9 2.3,-1.1 2.2,-1.1 2.3,-1.2 2.3,-1.3 2.2,-1.5 2.3,-1.5 2.2,-1.7 2.3,-1.8 2.3,-1.9 2.2,-2.1 2.3,-2.2 2.2,-2.3 2.3,-2.5 2.3,-2.6 2.2,-2.8 2.3,-2.9 2.2,-3 2.3,-3.1 2.3,-3.3 2.2,-3.3 2.3,-3.5 2.3,-3.5 2.2,-3.7 2.3,-3.7 2.2,-3.7 2.3,-3.8 2.3,-3.9 2.2,-3.8 2.3,-3.8 2.2,-3.7 2.3,-3.8 2.3,-3.6 2.2,-3.5 2.3,-3.5 2.2,-3.2 2.3,-3.2 2.3,-2.9 2.2,-2.8 2.3,-2.5 2.2,-2.3 2.3,-2 2.3,-1.8 2.2,-1.6 2.3,-1.2 2.2,-0.9 2.3,-0.7 2.3,-0.3 h 2.2 l 2.3,0.3 2.2,0.6 2.3,0.9 2.3,1.1 2.2,1.5 2.3,1.8 2.2,2 2.3,2.3 2.3,2.5 2.2,2.7 2.3,2.9 2.2,3.1 2.3,3.3 2.3,3.4 2.2,3.5 2.3,3.6 2.2,3.7 2.3,3.8 2.3,3.8 2.2,3.8 2.3,3.8 2.2,3.8 2.3,3.8 2.3,3.7 2.2,3.6 2.3,3.6 2.2,3.5 2.3,3.4 2.3,3.2 2.2,3.2 2.3,3 2.2,2.9 2.3,2.8 2.3,2.6 2.2,2.5 2.3,2.4 2.2,2.2 2.3,2.1 2.3,1.9 2.2,1.8 2.3,1.7 2.2,1.6 2.3,1.5 2.3,1.3 2.2,1.2 2.3,1.2 2.2,1 2.3,1 2.3,0.8 2.2,0.8 2.3,0.7 2.2,0.6 2.3,0.6 2.3,0.5 2.2,0.5 2.3,0.4 2.2,0.3 2.3,0.3 2.3,0.3 2.2,0.3 2.3,0.2 2.2,0.2 2.3,0.2 2.3,0.1 2.2,0.1 2.3,0.1 2.2,0.1 2.3,0.1 2.3,0.1 2.2,0.1 h 2.3 l 2.3,0.1 h 2.2 2.3 l 2.2,0.1 h 2.3 2.3 2.2 2.3 2.2 l 2.3,0.1 h 2.3 2.2 2.3 2.2 2.3 2.3 2.2 2.3 2.2 2.3 2.3 2.2 2.3 2.2 2.3 2.3 2.2 2.3 2.2 2.3 2.3 2.2 2.3 2.2 2.3 2.3 2.2 2.3 2.2 2.3 2.3 2.2 2.3 2.2 2.3 2.3 2.2 2.3 2.2"
           id="path3595" />
      </g>
      <g
         style="stroke:#7fff00;stroke-width:1"
         clip-path="url(#plot_window-3)"
         id="g3601"
         transform="translate(-0.49983941,-400.99904)">
        <path
           style="fill:none"
           inkscape:connector-curvature="0"
           d="m 84.2,341 h 2.26 2.26 2.26 2.26 2.26 2.26 2.24 2.3 2.2 2.3 2.3 2.2 2.3 2.2 2.3 2.3 2.2 2.3 2.2 2.3 2.3 2.2 2.3 2.2 2.3 2.3 2.2 2.3 2.2 2.3 2.3 2.2 2.3 2.2 2.3 2.3 2.2 2.3 2.2 l 2.3,-0.1 h 2.3 2.2 2.3 2.2 2.3 l 2.3,-0.1 h 2.2 2.3 l 2.2,-0.1 h 2.3 l 2.3,-0.1 2.2,-0.1 2.3,-0.1 2.3,-0.1 2.2,-0.1 2.3,-0.1 2.2,-0.1 2.3,-0.2 2.3,-0.2 2.2,-0.2 2.3,-0.3 2.2,-0.3 2.3,-0.3 2.3,-0.3 2.2,-0.4 2.3,-0.5 2.2,-0.5 2.3,-0.6 2.3,-0.6 2.2,-0.7 2.3,-0.8 2.2,-0.8 2.3,-1 2.3,-1 2.2,-1.1 2.3,-1.3 2.2,-1.3 2.3,-1.5 2.3,-1.6 2.2,-1.6 2.3,-1.9 2.2,-1.9 2.3,-2.1 2.3,-2.2 2.2,-2.4 2.3,-2.5 2.2,-2.6 2.3,-2.8 2.3,-2.9 2.2,-3 2.3,-3.2 2.2,-3.2 2.3,-3.4 2.3,-3.5 2.2,-3.6 2.3,-3.6 2.2,-3.7 2.3,-3.8 2.3,-3.8 2.2,-3.8 2.3,-3.8 2.2,-3.8 2.3,-3.8 2.3,-3.7 2.2,-3.6 2.3,-3.5 2.2,-3.4 2.3,-3.3 2.3,-3.1 2.2,-2.9 2.3,-2.7 2.2,-2.5 2.3,-2.3 2.3,-2 2.2,-1.8 2.3,-1.4 2.2,-1.2 2.3,-0.9 2.3,-0.6 2.2,-0.3 h 2.3 l 2.2,0.3 2.3,0.7 2.3,0.9 2.2,1.2 2.3,1.6 2.2,1.8 2.3,2 2.3,2.3 2.2,2.5 2.3,2.8 2.2,2.9 2.3,3.2 2.3,3.2 2.2,3.5 2.3,3.5 2.2,3.6 2.3,3.7 2.3,3.8 2.2,3.8 2.3,3.8 2.2,3.8 2.3,3.8 2.3,3.8 2.2,3.7 2.3,3.6 2.2,3.6 2.3,3.5 2.3,3.3 2.2,3.3 2.3,3.1 2.3,3 2.2,2.9 2.3,2.8 2.2,2.6 2.3,2.5 2.3,2.3 2.2,2.2 2.3,2.1 2.2,1.9 2.3,1.8 2.3,1.7 2.2,1.5 2.3,1.5 2.2,1.3 2.3,1.2 2.3,1.1 2.2,1.1 2.3,0.9 2.2,0.8 2.3,0.8 2.3,0.7 2.2,0.6 2.3,0.6 2.2,0.5 2.3,0.4 2.3,0.4 2.2,0.4 2.3,0.3 2.2,0.3 2.3,0.2 2.3,0.2 2.2,0.2 2.3,0.2 2.2,0.1 2.3,0.2 2.3,0.1 2.2,0.1 h 2.3 l 2.2,0.1 2.3,0.1 h 2.3 l 2.2,0.1 h 2.3 2.2 l 2.3,0.1 h 2.3 2.2 2.3 2.2"
           id="path3599" />
      </g>
      <rect
         style="fill:#ffffff;stroke:#778899;stroke-width:1"
         x="549.7002"
         y="-342.99905"
         width="173.8"
         height="165"
         id="rect3605" />
      <rect
         style="fill:#ffffff;stroke:#778899;stroke-width:1"
         x="549.7002"
         y="-342.99905"
         width="173.8"
         height="165"
         id="rect3607" />
      <g
         style="fill:#ffffff;stroke:#00008b;stroke-width:1"
         id="g3612"
         transform="translate(-0.49983941,-400.99904)">
        <line
           x1="565.20001"
           y1="88"
           x2="580.20001"
           y2="88"
           id="line3610" />
      </g>
      <g
         style="fill:#ffffff;stroke:#8b0000;stroke-width:1"
         id="g3616"
         transform="translate(-0.49983941,-400.99904)">
        <line
           x1="565.20001"
           y1="118"
           x2="580.20001"
           y2="118"
           id="line3614" />
      </g>
      <g
         style="fill:#ffffff;stroke:#006400;stroke-width:1"
         id="g3620"
         transform="translate(-0.49983941,-400.99904)">
        <line
           x1="565.20001"
           y1="148"
           x2="580.20001"
           y2="148"
           id="line3618" />
      </g>
      <g
         style="fill:#ffffff;stroke:#ff8c00;stroke-width:1"
         id="g3624"
         transform="translate(-0.49983941,-400.99904)">
        <line
           x1="565.20001"
           y1="178"
           x2="580.20001"
           y2="178"
           id="line3622" />
      </g>
      <g
         style="fill:#ffffff;stroke:#7fff00;stroke-width:1"
         id="g3628"
         transform="translate(-0.49983941,-400.99904)">
        <line
           x1="565.20001"
           y1="208"
           x2="580.20001"
           y2="208"
           id="line3626" />
      </g>
      <text
         style="font-size:15px;font-family:Verdana"
         x="587.2002"
         y="-312.99905"
         font-size="15"
         id="text3631">μ = 0, σ = 1</text>
      <text
         style="font-size:15px;font-family:Verdana"
         x="587.2002"
         y="-282.99905"
         font-size="15"
         id="text3633">μ = 0, σ = 0.5</text>
      <text
         style="font-size:15px;font-family:Verdana"
         x="587.2002"
         y="-252.99904"
         font-size="15"
         id="text3635">μ = 0, σ = 2</text>
      <text
         style="font-size:15px;font-family:Verdana"
         x="587.2002"
         y="-222.99904"
         font-size="15"
         id="text3637">μ = -1, σ = 1</text>
      <text
         style="font-size:15px;font-family:Verdana"
         x="587.2002"
         y="-192.99904"
         font-size="15"
         id="text3639">μ = 1, σ = 1</text>
      <text
         style="font-size:20px;font-family:Verdana;text-anchor:middle"
         x="374.50015"
         y="-360.99905"
         font-size="20"
         id="text3642">ალბათური განაწილების ფუნქცია</text>
    </g>
  </g>
</svg>
